<svg width="322" height="70" viewBox="0 0 322 70" fill="none" xmlns="http://www.w3.org/2000/svg">
<path d="M15.089 2.133C15.089 1.185 14.773 0.789999 13.904 0.868998C9.164 1.422 4.819 1.817 0.711 1.817C0.316 1.817 0 2.054 0 2.449C0 2.844 0.474 3.081 0.711 3.081C6.399 2.923 7.584 4.266 7.584 7.11V48.348C7.584 51.429 6.399 51.587 1.185 51.587C0.79 51.587 0.474 51.903 0.474 52.219C0.474 52.614 0.711 52.93 1.106 52.93C1.896 52.93 20.224 52.93 20.777 52.93C21.093 52.93 21.488 52.693 21.488 52.219C21.488 51.824 21.093 51.587 20.777 51.587C17.459 51.587 15.089 51.192 15.089 49.612C15.089 49.612 15.089 2.449 15.089 2.133Z" fill="#FCFCFC"/>
<path d="M44.9837 21.33C45.4577 21.33 45.6947 21.093 45.6947 20.698C45.6947 20.303 45.5367 19.987 44.9837 19.908L37.2417 19.434C37.2417 15.168 37.2417 9.559 37.2417 8.69C37.2417 4.187 38.9007 1.106 42.6137 1.106C43.6407 1.106 44.8257 1.659 44.8257 2.37C44.8257 2.844 42.8507 3.318 42.8507 6.241C42.8507 8.532 44.7467 10.428 47.1167 10.428C49.6447 10.428 51.2247 8.216 51.2247 5.846C51.2247 1.659 47.0377 0 43.0877 0C34.6347 0 29.7367 8.769 29.7367 19.434L23.1007 19.75C22.7057 19.75 22.3897 20.224 22.3897 20.619C22.3897 21.014 22.6267 21.33 23.0217 21.33L29.7367 21.725V48.348C29.7367 51.429 28.5517 51.587 23.3377 51.587C22.9427 51.587 22.6267 51.903 22.6267 52.219C22.6267 52.614 22.8637 52.93 23.2587 52.93C24.0487 52.93 44.1937 52.93 44.7467 52.93C45.1417 52.93 45.4577 52.693 45.4577 52.219C45.4577 51.824 45.1417 51.587 44.7467 51.587C41.4287 51.587 37.2417 51.192 37.2417 49.612V41.159C37.2417 32.548 37.2417 21.646 37.2417 21.646L44.9837 21.33Z" fill="#FCFCFC"/>
<path d="M77.5052 39.342C77.5052 39.184 77.1892 38.71 76.8732 38.71C76.5572 38.71 76.3992 39.105 76.3992 39.342C76.3992 45.583 72.7652 51.508 65.9712 51.508C59.9672 51.508 56.6492 47.558 56.6492 35.787C56.6492 23.068 60.9942 19.276 65.6552 19.276C70.0002 19.276 71.8172 22.436 71.8172 23.384C71.8172 24.016 71.1062 24.411 70.5532 24.648C69.2892 25.201 68.1832 26.702 68.1832 28.44C68.1832 30.731 70.0002 32.627 72.2122 32.627C74.9772 32.627 76.7942 30.099 76.7942 27.255C76.7942 22.673 71.4222 18.328 65.1812 18.328C56.0172 18.328 48.1962 26.781 48.1962 36.261C48.1962 46.136 55.1482 53.483 63.7592 53.483C72.9232 53.483 77.3472 47.084 77.5052 39.342Z" fill="#FCFCFC"/>
<path d="M87.3666 37.446C89.5786 38.868 92.4226 39.184 94.8716 39.737C99.3746 40.685 103.167 42.344 103.167 46.61C103.167 50.007 101.113 52.693 96.8466 52.693C89.5786 52.693 86.0236 44.951 84.3646 38.473C84.2856 38.236 84.0486 37.604 83.6536 37.604C83.2586 37.604 83.0216 37.999 83.0216 38.394C83.0216 42.739 83.0216 47.716 83.0216 53.009C83.0216 53.246 83.1796 53.483 83.4166 53.483C83.6536 53.483 83.8906 53.325 83.9696 53.167C84.8386 51.903 85.3916 50.955 86.2606 49.849C86.4186 49.691 86.7346 49.059 87.1296 49.059C87.5246 49.059 88.0776 49.533 88.3146 49.77C90.9216 52.219 93.3706 53.72 97.0836 53.72C104.036 53.72 107.67 48.98 107.67 43.134C107.67 38.947 105.537 35.076 102.219 33.733C99.9276 32.785 98.3476 32.311 95.7406 31.837C91.1586 30.968 85.9446 29.546 85.9446 25.043C85.9446 21.962 88.5516 19.197 92.5806 19.197C98.8216 19.197 102.456 25.359 103.483 31.521C103.562 31.837 103.641 32.311 104.036 32.311C104.431 32.311 104.668 31.837 104.668 31.521C104.668 27.413 105.063 23.7 105.063 19.118C105.063 18.96 104.905 18.644 104.668 18.565C104.352 18.486 104.115 18.723 103.957 18.96C103.483 19.671 102.851 20.382 102.061 21.33C101.824 21.646 101.508 22.041 101.113 22.041C100.876 22.041 100.402 21.646 100.244 21.488C97.9526 19.671 95.5036 18.328 92.7386 18.328C86.7346 18.328 82.3896 22.989 82.3896 28.598C82.3896 32.311 84.5226 35.629 87.3666 37.446Z" fill="#FCFCFC"/>
<path d="M115.261 53.483C117.789 53.483 119.369 51.271 119.369 48.822C119.369 46.452 117.71 44.635 115.34 44.635C112.812 44.635 110.995 46.373 110.995 48.822C110.995 51.35 112.654 53.483 115.261 53.483Z" fill="#FCFCFC"/>
<path d="M146.478 22.515C146.478 22.831 146.399 23.305 146.083 23.305C145.846 23.305 145.609 23.226 145.53 23.068C143.634 19.513 141.817 18.407 138.578 18.407C130.046 18.407 123.647 28.282 123.647 37.525C123.647 44.477 128.545 53.483 136.682 53.483C141.738 53.483 143.95 50.323 146.004 45.741H146.32C146.32 48.032 146.32 50.481 146.32 52.14C146.32 52.614 146.636 52.93 147.11 52.93C150.902 52.93 155.721 52.93 160.461 52.93C160.935 52.93 161.33 52.693 161.33 52.298C161.33 51.903 160.935 51.587 160.461 51.587C156.906 51.587 154.141 51.113 154.141 49.533C154.141 33.022 154.141 4.029 154.141 2.291C154.141 1.659 153.904 1.343 153.035 1.422C148.295 1.975 140.869 1.817 136.761 1.817C136.366 1.817 136.05 2.054 136.05 2.449C136.05 2.844 136.524 3.081 136.761 3.081C142.449 2.923 146.478 4.029 146.478 7.11C146.478 13.351 146.478 16.906 146.478 22.515ZM139.052 19.355C144.029 19.355 146.004 25.754 146.004 35.708C146.004 42.739 144.266 51.982 138.499 51.982C134.391 51.982 132.258 48.743 132.258 37.999C132.258 25.675 134.549 19.355 139.052 19.355Z" fill="#FCFCFC"/>
<path d="M192.62 41.159C192.699 40.685 192.462 40.053 191.988 40.053C191.514 40.053 191.119 40.448 191.04 40.922C190.013 49.138 184.957 51.745 180.138 51.745C175.319 51.745 171.606 49.217 171.606 38.631C171.606 38.631 171.606 37.288 171.606 35.866C173.028 35.866 191.909 35.866 191.909 35.866C192.541 35.866 192.699 35.55 192.699 34.918C192.699 25.675 187.722 18.328 179.348 18.328C170.263 18.328 162.916 27.413 162.916 37.209C162.916 47.716 170.5 53.483 179.111 53.483C186.537 53.483 191.751 48.427 192.62 41.159ZM185.273 32.706C185.273 33.733 184.957 34.207 184.088 34.207C180.296 34.207 177.294 34.207 173.107 34.207C171.843 34.207 171.606 33.812 171.606 32.943C171.606 24.569 174.529 19.276 179.19 19.276C183.693 19.276 185.273 24.49 185.273 32.706Z" fill="#FCFCFC"/>
<path d="M202.858 37.446C205.07 38.868 207.914 39.184 210.363 39.737C214.866 40.685 218.658 42.344 218.658 46.61C218.658 50.007 216.604 52.693 212.338 52.693C205.07 52.693 201.515 44.951 199.856 38.473C199.777 38.236 199.54 37.604 199.145 37.604C198.75 37.604 198.513 37.999 198.513 38.394C198.513 42.739 198.513 47.716 198.513 53.009C198.513 53.246 198.671 53.483 198.908 53.483C199.145 53.483 199.382 53.325 199.461 53.167C200.33 51.903 200.883 50.955 201.752 49.849C201.91 49.691 202.226 49.059 202.621 49.059C203.016 49.059 203.569 49.533 203.806 49.77C206.413 52.219 208.862 53.72 212.575 53.72C219.527 53.72 223.161 48.98 223.161 43.134C223.161 38.947 221.028 35.076 217.71 33.733C215.419 32.785 213.839 32.311 211.232 31.837C206.65 30.968 201.436 29.546 201.436 25.043C201.436 21.962 204.043 19.197 208.072 19.197C214.313 19.197 217.947 25.359 218.974 31.521C219.053 31.837 219.132 32.311 219.527 32.311C219.922 32.311 220.159 31.837 220.159 31.521C220.159 27.413 220.554 23.7 220.554 19.118C220.554 18.96 220.396 18.644 220.159 18.565C219.843 18.486 219.606 18.723 219.448 18.96C218.974 19.671 218.342 20.382 217.552 21.33C217.315 21.646 216.999 22.041 216.604 22.041C216.367 22.041 215.893 21.646 215.735 21.488C213.444 19.671 210.995 18.328 208.23 18.328C202.226 18.328 197.881 22.989 197.881 28.598C197.881 32.311 200.014 35.629 202.858 37.446Z" fill="#FCFCFC"/>
<path d="M239.679 20.382C239.679 19.434 239.363 19.039 238.494 19.118C233.754 19.671 229.804 20.066 225.696 20.066C225.301 20.066 224.985 20.303 224.985 20.698C224.985 21.093 225.459 21.33 225.696 21.33C231.384 21.172 232.174 22.041 232.174 25.359V48.348C232.174 51.429 230.989 51.587 225.775 51.587C225.38 51.587 225.064 51.903 225.064 52.219C225.064 52.614 225.301 52.93 225.696 52.93C226.486 52.93 244.814 52.93 245.367 52.93C245.683 52.93 246.078 52.693 246.078 52.219C246.078 51.824 245.683 51.587 245.367 51.587C242.049 51.587 239.679 51.192 239.679 49.612C239.679 49.612 239.679 20.698 239.679 20.382ZM236.282 9.875C238.889 9.875 240.469 8.058 240.469 5.214C240.469 2.607 238.81 0.711 236.44 0.711C233.596 0.711 231.779 2.765 231.779 5.293C231.779 8.058 233.596 9.875 236.282 9.875Z" fill="#FCFCFC"/>
<path d="M254.308 38.789V39.026C250.437 39.974 248.225 42.818 248.225 45.899C248.225 49.928 250.042 53.009 254.387 54.431V54.668C251.069 56.169 247.593 57.67 247.593 60.435C247.593 65.175 255.651 69.283 264.578 69.283C272.241 69.283 279.825 64.859 279.825 57.275C279.825 50.56 275.243 46.294 266.395 46.294C262.603 46.294 260.47 47.005 256.599 47.005C254.071 47.005 250.595 46.373 250.595 43.687C250.595 41.317 252.807 40.053 255.888 40.053C258.574 40.053 260.391 40.843 263.156 40.843C270.187 40.843 277.455 36.814 277.455 29.704C277.455 25.359 274.374 21.883 271.767 19.987C270.582 19.118 270.582 18.723 270.582 17.064C270.582 15.8 270.977 13.983 271.925 13.983C272.241 13.983 272.399 14.141 272.399 14.457C272.399 15.484 273.663 17.222 275.164 17.222C276.744 17.222 277.929 15.879 277.929 14.378C277.929 12.403 276.507 11.139 274.769 11.139C271.372 11.139 269.318 13.193 269.476 19.039C267.422 18.565 266.079 18.328 263.946 18.328C256.283 18.328 250.042 23.621 250.042 30.81C250.042 33.812 251.859 37.13 254.308 38.789ZM270.266 30.336C270.266 36.893 267.975 39.816 263.867 39.816C260.075 39.816 257.389 37.999 257.389 29.467C257.389 21.488 260.549 19.118 264.104 19.118C267.817 19.118 270.266 22.278 270.266 30.336ZM276.586 60.593C276.586 65.886 269.792 68.651 263.946 68.651C258.1 68.651 253.044 66.123 253.044 60.909C253.044 55.458 257.626 54.194 266.079 54.194C272.715 54.194 276.586 55.932 276.586 60.593Z" fill="#FCFCFC"/>
<path d="M287.644 25.359V48.348C287.644 51.429 286.459 51.587 281.245 51.587C280.85 51.587 280.534 51.903 280.534 52.219C280.534 52.614 280.771 52.93 281.166 52.93C281.956 52.93 299.573 52.93 300.126 52.93C300.442 52.93 300.837 52.693 300.837 52.219C300.837 51.824 300.442 51.587 300.126 51.587C296.808 51.587 295.149 51.192 295.149 49.612V41.159C295.149 32.548 296.018 20.461 303.207 20.461C305.419 20.461 307.789 22.041 307.789 26.07V49.612C307.789 51.192 306.525 51.587 302.575 51.587C302.18 51.587 301.864 51.824 301.864 52.219C301.864 52.614 302.18 52.93 302.575 52.93C303.128 52.93 318.217 52.93 321.14 52.93C321.535 52.93 321.93 52.614 321.93 52.219C321.93 51.824 321.535 51.587 321.14 51.587C317.269 51.587 315.531 51.271 315.531 49.612L315.926 29.072C316.005 23.463 311.265 19.039 305.893 19.039C301.311 19.039 297.677 21.093 295.702 25.991H295.386C295.228 23.858 295.149 21.804 295.07 19.987C295.07 19.355 294.833 19.039 293.964 19.118C289.224 19.671 285.274 20.066 281.166 20.066C280.771 20.066 280.455 20.303 280.455 20.698C280.455 21.093 280.929 21.33 281.166 21.33C286.854 21.172 287.644 22.436 287.644 25.359Z" fill="#FCFCFC"/>
</svg>
